<svg width="14" height="14" viewBox="0 0 14 14" fill="none" xmlns="http://www.w3.org/2000/svg">
<g id="dashboard-line">
<path id="Vector" d="M8.16667 12.25C7.84449 12.25 7.58333 11.9888 7.58333 11.6667V7C7.58333 6.67782 7.84449 6.41667 8.16667 6.41667H11.6667C11.9888 6.41667 12.25 6.67782 12.25 7V11.6667C12.25 11.9888 11.9888 12.25 11.6667 12.25H8.16667ZM2.33333 7.58333C2.01117 7.58333 1.75 7.32218 1.75 7V2.33333C1.75 2.01117 2.01117 1.75 2.33333 1.75H5.83333C6.15551 1.75 6.41667 2.01117 6.41667 2.33333V7C6.41667 7.32218 6.15551 7.58333 5.83333 7.58333H2.33333ZM5.25 6.41667V2.91667H2.91667V6.41667H5.25ZM2.33333 12.25C2.01117 12.25 1.75 11.9888 1.75 11.6667V9.33333C1.75 9.01116 2.01117 8.75 2.33333 8.75H5.83333C6.15551 8.75 6.41667 9.01116 6.41667 9.33333V11.6667C6.41667 11.9888 6.15551 12.25 5.83333 12.25H2.33333ZM2.91667 11.0833H5.25V9.91667H2.91667V11.0833ZM8.75 11.0833H11.0833V7.58333H8.75V11.0833ZM7.58333 2.33333C7.58333 2.01117 7.84449 1.75 8.16667 1.75H11.6667C11.9888 1.75 12.25 2.01117 12.25 2.33333V4.66667C12.25 4.98883 11.9888 5.25 11.6667 5.25H8.16667C7.84449 5.25 7.58333 4.98883 7.58333 4.66667V2.33333ZM8.75 2.91667V4.08333H11.0833V2.91667H8.75Z" fill="#494D49"/>
</g>
</svg>
