<svg width="18" height="18" viewBox="0 0 18 18" fill="none" xmlns="http://www.w3.org/2000/svg">
<path d="M0.666748 15.6667H17.3334V17.3333H0.666748V15.6667ZM2.33341 8.99999H4.00008V14.8333H2.33341V8.99999ZM6.50008 8.99999H8.16675V14.8333H6.50008V8.99999ZM9.83341 8.99999H11.5001V14.8333H9.83341V8.99999ZM14.0001 8.99999H15.6667V14.8333H14.0001V8.99999ZM0.666748 4.83332L9.00008 0.666656L17.3334 4.83332V8.16666H0.666748V4.83332ZM2.33341 5.86338V6.49999H15.6667V5.86338L9.00008 2.53005L2.33341 5.86338ZM9.00008 5.66666C8.53983 5.66666 8.16675 5.29356 8.16675 4.83332C8.16675 4.37309 8.53983 3.99999 9.00008 3.99999C9.46033 3.99999 9.83341 4.37309 9.83341 4.83332C9.83341 5.29356 9.46033 5.66666 9.00008 5.66666Z" fill="#BAAC7B"/>
</svg>
