<svg width="49" height="48" viewBox="0 0 49 48" fill="none" xmlns="http://www.w3.org/2000/svg">
<path id="Vector" d="M25.0657 0.0034195L16.8795 4.37578L23.767 25.4495L5.05768 11.8492L0 16.7287L1.60024 25.7544H23.6128L4.90348 39.3033L8.00459 45.7076L17.0543 46.9515L23.9178 25.9292L23.9932 25.751L24.0171 25.6242L24.0925 25.3946L31.3124 3.33067L25.0588 0L25.0657 0.0034195ZM24.1987 25.7544L24.0206 25.6276L23.8938 25.5523L23.767 25.4495L5.05768 11.8492L0 16.7287L1.60024 25.7544H23.6128L4.90348 39.3033L8.00459 45.7076L17.0543 46.9515L23.9178 25.9292L31.1377 47.9932L38.0765 47.0268L42.0925 38.7653L24.1987 25.751V25.7544ZM42.096 12.3598L24.0994 25.4015L31.3192 3.33752L25.0657 0.00684946L16.8795 4.37921L23.767 25.4529L5.05768 11.8527L0 16.7322L1.60024 25.7579H47.4826L48.7264 18.7676L42.0925 12.3632L42.096 12.3598ZM48.7299 18.7641L42.096 12.3598L24.0994 25.4015L23.8972 25.5557L23.8218 25.6071L23.6196 25.7579L4.91034 39.3067L8.01142 45.711L17.0611 46.9549L23.9246 25.9326L31.1445 47.9966L38.0834 47.0303L42.0994 38.7687L24.2056 25.7544H47.4894L48.7333 18.7641H48.7299ZM48.7299 18.7641L42.096 12.3598L24.0994 25.4015L31.3192 3.33752L25.0657 0.00684946L16.8795 4.37921L23.767 25.4529L23.8184 25.6071L23.8698 25.7579L23.9212 25.936L31.1411 48L38.08 47.0337L42.096 38.7721L24.2022 25.7579H47.486L48.7299 18.7676V18.7641Z" fill="#005128"/>
</svg>
