<svg width="14" height="14" viewBox="0 0 14 14" fill="none" xmlns="http://www.w3.org/2000/svg">
<path d="M7.00278 12.8349C3.78111 12.8349 1.16943 10.2233 1.16943 7.00158C1.16943 3.77994 3.78111 1.16827 7.00278 1.16827C10.2244 1.16827 12.8361 3.77994 12.8361 7.00158C12.8361 10.2233 10.2244 12.8349 7.00278 12.8349ZM7.00278 11.6682C9.58012 11.6682 11.6694 9.57892 11.6694 7.00158C11.6694 4.42428 9.58012 2.33494 7.00278 2.33494C4.42544 2.33494 2.3361 4.42428 2.3361 7.00158C2.3361 9.57892 4.42544 11.6682 7.00278 11.6682ZM4.9611 8.16824H8.16945C8.3305 8.16824 8.46111 8.03769 8.46111 7.87658C8.46111 7.71552 8.3305 7.58491 8.16945 7.58491H5.83611C5.03069 7.58491 4.37777 6.93204 4.37777 6.12658C4.37777 5.32119 5.03069 4.66827 5.83611 4.66827H6.41945V3.50161H7.58611V4.66827H9.04445V5.83491H5.83611C5.67502 5.83491 5.54443 5.96552 5.54443 6.12658C5.54443 6.28769 5.67502 6.41824 5.83611 6.41824H8.16945C8.97485 6.41824 9.62778 7.07117 9.62778 7.87658C9.62778 8.68204 8.97485 9.33491 8.16945 9.33491H7.58611V10.5016H6.41945V9.33491H4.9611V8.16824Z" fill="#494D49"/>
</svg>
