<svg width="20" height="19" viewBox="0 0 20 19" fill="none" xmlns="http://www.w3.org/2000/svg">
<path d="M0.833252 18.3333C0.833252 14.6514 3.81802 11.6667 7.49992 11.6667C11.1818 11.6667 14.1666 14.6514 14.1666 18.3333H12.4999C12.4999 15.5719 10.2613 13.3333 7.49992 13.3333C4.73849 13.3333 2.49992 15.5719 2.49992 18.3333H0.833252ZM7.49992 10.8333C4.73742 10.8333 2.49992 8.59584 2.49992 5.83336C2.49992 3.07086 4.73742 0.83336 7.49992 0.83336C10.2624 0.83336 12.4999 3.07086 12.4999 5.83336C12.4999 8.59584 10.2624 10.8333 7.49992 10.8333ZM7.49992 9.16668C9.34159 9.16668 10.8333 7.67503 10.8333 5.83336C10.8333 3.99169 9.34159 2.50003 7.49992 2.50003C5.65825 2.50003 4.16659 3.99169 4.16659 5.83336C4.16659 7.67503 5.65825 9.16668 7.49992 9.16668ZM17.9563 0.652985C18.731 2.21377 19.1666 3.9727 19.1666 5.83336C19.1666 7.69402 18.731 9.45293 17.9563 11.0138L16.5855 10.0168C17.1725 8.74401 17.4999 7.32694 17.4999 5.83336C17.4999 4.33978 17.1725 2.92268 16.5855 1.64993L17.9563 0.652985ZM15.2052 2.65377C15.6099 3.63356 15.8333 4.70738 15.8333 5.83336C15.8333 6.95934 15.6099 8.03315 15.2052 9.01293L13.8078 7.99663C14.0403 7.31829 14.1666 6.59057 14.1666 5.83336C14.1666 5.07614 14.0403 4.34842 13.8078 3.67008L15.2052 2.65377Z" fill="#BAAC7B"/>
</svg>
