<svg width="14" height="14" viewBox="0 0 14 14" fill="none" xmlns="http://www.w3.org/2000/svg">
<g id="shopping-bag-4-line">
<path id="Vector" d="M5.25 3.50001H8.75C8.75 2.53351 7.96652 1.75001 7 1.75001C6.03347 1.75001 5.25 2.53351 5.25 3.50001ZM4.08333 3.50001C4.08333 1.88918 5.38917 0.583344 7 0.583344C8.61082 0.583344 9.91667 1.88918 9.91667 3.50001H11.6667C11.9888 3.50001 12.25 3.76118 12.25 4.08334V12.25C12.25 12.5722 11.9888 12.8333 11.6667 12.8333H2.33333C2.01117 12.8333 1.75 12.5722 1.75 12.25V4.08334C1.75 3.76118 2.01117 3.50001 2.33333 3.50001H4.08333ZM2.91667 4.66668V11.6667H11.0833V4.66668H2.91667ZM5.25 5.83334C5.25 6.79987 6.03347 7.58334 7 7.58334C7.96652 7.58334 8.75 6.79987 8.75 5.83334H9.91667C9.91667 7.44416 8.61082 8.75001 7 8.75001C5.38917 8.75001 4.08333 7.44416 4.08333 5.83334H5.25Z" fill="#494D49"/>
</g>
</svg>
