<svg width="20" height="20" viewBox="0 0 20 20" fill="none" xmlns="http://www.w3.org/2000/svg">
<g id="Shopping bag">
<path id="Vector" d="M4.99992 18.3334C4.54159 18.3334 4.14936 18.1703 3.82325 17.8442C3.49659 17.5175 3.33325 17.125 3.33325 16.6667V6.66669C3.33325 6.20835 3.49659 5.81613 3.82325 5.49002C4.14936 5.16335 4.54159 5.00002 4.99992 5.00002H6.66659C6.66659 4.08335 6.99297 3.29863 7.64575 2.64585C8.29853 1.99308 9.08325 1.66669 9.99992 1.66669C10.9166 1.66669 11.7013 1.99308 12.3541 2.64585C13.0069 3.29863 13.3333 4.08335 13.3333 5.00002H14.9999C15.4583 5.00002 15.8508 5.16335 16.1774 5.49002C16.5035 5.81613 16.6666 6.20835 16.6666 6.66669V16.6667C16.6666 17.125 16.5035 17.5175 16.1774 17.8442C15.8508 18.1703 15.4583 18.3334 14.9999 18.3334H4.99992ZM8.33325 5.00002H11.6666C11.6666 4.54169 11.5035 4.14946 11.1774 3.82335C10.8508 3.49669 10.4583 3.33335 9.99992 3.33335C9.54159 3.33335 9.14936 3.49669 8.82325 3.82335C8.49659 4.14946 8.33325 4.54169 8.33325 5.00002ZM4.99992 16.6667H14.9999V6.66669H13.3333V8.33335C13.3333 8.56946 13.2535 8.76724 13.0941 8.92669C12.9341 9.08669 12.736 9.16669 12.4999 9.16669C12.2638 9.16669 12.066 9.08669 11.9066 8.92669C11.7466 8.76724 11.6666 8.56946 11.6666 8.33335V6.66669H8.33325V8.33335C8.33325 8.56946 8.25353 8.76724 8.09409 8.92669C7.93409 9.08669 7.73603 9.16669 7.49992 9.16669C7.26381 9.16669 7.06603 9.08669 6.90659 8.92669C6.74659 8.76724 6.66659 8.56946 6.66659 8.33335V6.66669H4.99992V16.6667Z" fill="#BAAC7B"/>
</g>
</svg>
