<svg width="14" height="14" viewBox="0 0 14 14" fill="none" xmlns="http://www.w3.org/2000/svg">
<g id="stack-fill">
<path id="Vector" d="M11.7153 6.12493L12.4165 6.54569C12.5547 6.62858 12.5994 6.80772 12.5166 6.94586C12.4919 6.98692 12.4576 7.02128 12.4165 7.0459L7.00007 10.2958L1.58354 7.0459C1.44542 6.96301 1.40063 6.78386 1.4835 6.64573C1.50814 6.60466 1.54249 6.57031 1.58354 6.54569L2.28476 6.12493L7.00007 8.9541L11.7153 6.12493ZM11.7153 8.8666L12.4165 9.28736C12.5547 9.37025 12.5994 9.54939 12.5166 9.68752C12.4919 9.72859 12.4576 9.76295 12.4165 9.78756L7.30013 12.8574C7.11545 12.9682 6.88463 12.9682 6.69994 12.8574L1.58354 9.78756C1.44542 9.70467 1.40063 9.52553 1.4835 9.3874C1.50814 9.34633 1.54249 9.31197 1.58354 9.28736L2.28476 8.8666L7.00007 11.6958L11.7153 8.8666ZM7.30013 0.763362L12.4165 3.83319C12.5547 3.91606 12.5994 4.09522 12.5166 4.23335C12.4919 4.2744 12.4576 4.30876 12.4165 4.33339L7.00007 7.58326L1.58354 4.33339C1.44542 4.25052 1.40063 4.07136 1.4835 3.93323C1.50814 3.89217 1.54249 3.85782 1.58354 3.83319L6.69994 0.763362C6.88463 0.652528 7.11545 0.652528 7.30013 0.763362Z" fill="#494D49"/>
</g>
</svg>
