<svg width="16" height="19" viewBox="0 0 16 19" fill="none" xmlns="http://www.w3.org/2000/svg">
<path d="M12.6814 4.97343L13.8926 3.76228L15.0711 4.94078L13.8599 6.15194C14.8863 7.435 15.5 9.06251 15.5 10.8333C15.5 14.9755 12.1422 18.3333 8 18.3333C3.85787 18.3333 0.5 14.9755 0.5 10.8333C0.5 6.69121 3.85787 3.33334 8 3.33334C9.77083 3.33334 11.3983 3.94707 12.6814 4.97343ZM8 16.6667C11.2217 16.6667 13.8333 14.055 13.8333 10.8333C13.8333 7.61169 11.2217 5.00001 8 5.00001C4.77834 5.00001 2.16667 7.61169 2.16667 10.8333C2.16667 14.055 4.77834 16.6667 8 16.6667ZM7.16667 6.66668H8.83333V11.6667H7.16667V6.66668ZM4.66667 0.833344H11.3333V2.50001H4.66667V0.833344Z" fill="#BAAC7B"/>
</svg>
