<svg width="33" height="32" viewBox="0 0 33 32" fill="none" xmlns="http://www.w3.org/2000/svg">
<path d="M16.7105 0.00227967L11.253 2.91719L15.8447 16.9663L3.37179 7.89948L0 11.1525L1.06683 17.1696H15.7419L3.26899 26.2022L5.33639 30.4717L11.3695 31.301L15.9452 17.2861L15.9954 17.1673L16.0114 17.0828L16.0617 16.9298L20.8749 2.22045L16.7059 0L16.7105 0.00227967ZM16.1325 17.1696L16.0137 17.0851L15.9292 17.0348L15.8447 16.9663L3.37179 7.89948L0 11.1525L1.06683 17.1696H15.7419L3.26899 26.2022L5.33639 30.4717L11.3695 31.301L15.9452 17.2861L20.7584 31.9954L25.3844 31.3512L28.0617 25.8435L16.1325 17.1673V17.1696ZM28.064 8.23986L16.0663 16.9343L20.8795 2.22501L16.7105 0.00456631L11.253 2.91947L15.8447 16.9686L3.37179 7.90177L0 11.1548L1.06683 17.1719H31.6551L32.4843 12.5117L28.0617 8.24214L28.064 8.23986ZM32.4866 12.5094L28.064 8.23986L16.0663 16.9343L15.9315 17.0371L15.8812 17.0714L15.7464 17.1719L3.27356 26.2045L5.34095 30.474L11.3741 31.3033L15.9497 17.2884L20.763 31.9977L25.3889 31.3535L28.0663 25.8458L16.1371 17.1696H31.6596L32.4889 12.5094H32.4866ZM32.4866 12.5094L28.064 8.23986L16.0663 16.9343L20.8795 2.22501L16.7105 0.00456631L11.253 2.91947L15.8447 16.9686L15.8789 17.0714L15.9132 17.1719L15.9475 17.2907L20.7607 32L25.3867 31.3558L28.064 25.8481L16.1348 17.1719H31.6573L32.4866 12.5117V12.5094Z" fill="#E4F7EB"/>
</svg>
