<svg width="79" height="24" viewBox="0 0 79 24" fill="none" xmlns="http://www.w3.org/2000/svg">
<path d="M12.5328 0.00170975L8.43975 2.18789L11.8835 12.7247L2.52884 5.92461L0 8.36436L0.800122 12.8772H11.8064L2.45174 19.6516L4.00229 22.8538L8.52713 23.4757L11.9589 12.9646L11.9966 12.8755L12.0086 12.8121L12.0463 12.6973L15.6562 1.66533L12.5294 0L12.5328 0.00170975ZM12.0994 12.8772L12.0103 12.8138L11.9469 12.7761L11.8835 12.7247L2.52884 5.92461L0 8.36436L0.800122 12.8772H11.8064L2.45174 19.6516L4.00229 22.8538L8.52713 23.4757L11.9589 12.9646L15.5688 23.9966L19.0383 23.5134L21.0463 19.3826L12.0994 12.8755V12.8772ZM21.048 6.17989L12.0497 12.7007L15.6596 1.66876L12.5328 0.00342473L8.43975 2.18961L11.8835 12.7264L2.52884 5.92633L0 8.36608L0.800122 12.8789H23.7413L24.3632 9.38378L21.0463 6.18161L21.048 6.17989ZM24.3649 9.38206L21.048 6.17989L12.0497 12.7007L11.9486 12.7778L11.9109 12.8035L11.8098 12.8789L2.45517 19.6533L4.00571 22.8555L8.53056 23.4774L11.9623 12.9663L15.5723 23.9983L19.0417 23.5151L21.0497 19.3844L12.1028 12.8772H23.7447L24.3667 9.38206H24.3649ZM24.3649 9.38206L21.048 6.17989L12.0497 12.7007L15.6596 1.66876L12.5328 0.00342473L8.43975 2.18961L11.8835 12.7264L11.9092 12.8035L11.9349 12.8789L11.9606 12.968L15.5705 24L19.04 23.5168L21.048 19.3861L12.1011 12.8789H23.743L24.3649 9.38378V9.38206Z" fill="#005128"/>
<path d="M33.9266 4.85104V16.711L33.6866 16.461H40.4266V19.151H30.7666V4.85104H33.9266Z" fill="#005128"/>
<path d="M44.6456 19.151H41.4856V4.85104H44.6456V19.151Z" fill="#005128"/>
<path d="M46.0305 19.1509V4.84592H53.1005C53.9075 4.84592 54.6285 4.94792 55.2655 5.15092C55.9025 5.35392 56.4435 5.64392 56.8905 6.02092C57.3375 6.39792 57.6785 6.85192 57.9155 7.38292C58.1525 7.91492 58.2705 8.50992 58.2705 9.17092C58.2705 9.76392 58.1725 10.3009 57.9755 10.7809C57.7785 11.2609 57.4985 11.6719 57.1355 12.0139C56.7725 12.3559 56.3345 12.6179 55.8235 12.8019C55.3115 12.9849 54.7405 13.0769 54.1115 13.0769V13.0669C54.4185 13.0669 54.7065 13.1149 54.9765 13.2119C55.2465 13.3089 55.4995 13.4509 55.7345 13.6399C55.9695 13.8279 56.1875 14.0629 56.3875 14.3449C56.5875 14.6269 56.7705 14.9529 56.9375 15.3229L58.6575 19.1529H55.1525L53.4175 15.3329C53.2905 15.0499 53.1625 14.8159 53.0325 14.6309C52.9025 14.4459 52.7555 14.2979 52.5925 14.1879C52.4295 14.0779 52.2405 14.0009 52.0275 13.9579C51.8145 13.9149 51.5605 13.8929 51.2675 13.8929H49.0075L49.1925 13.6629V19.1529H46.0325L46.0305 19.1509ZM49.1905 7.24092V11.6809L48.9255 11.3409H52.7405C53.1135 11.3409 53.4475 11.2969 53.7405 11.2079C54.0335 11.1199 54.2825 10.9909 54.4855 10.8229C54.6885 10.6549 54.8435 10.4479 54.9475 10.2029C55.0525 9.95791 55.1055 9.67892 55.1055 9.36492C55.1055 9.05092 55.0535 8.78691 54.9505 8.54991C54.8475 8.31291 54.6945 8.11391 54.4935 7.95291C54.2915 7.79091 54.0435 7.66792 53.7485 7.58292C53.4535 7.49792 53.1155 7.45492 52.7365 7.45492H49.0215L49.1915 7.23992L49.1905 7.24092Z" fill="#005128"/>
<path d="M62.8956 19.151H59.7356V4.85104H62.8956V19.151Z" fill="#005128"/>
<path d="M64.3606 9.88799C64.5136 9.22999 64.7356 8.625 65.0256 8.07299C65.3156 7.521 65.6666 7.02699 66.0786 6.59099C66.4906 6.15399 66.9526 5.785 67.4666 5.483C67.9796 5.181 68.5406 4.94999 69.1496 4.79099C69.7576 4.63099 70.4016 4.55099 71.0826 4.55099C71.7636 4.55099 72.4066 4.63099 73.0146 4.79099C73.6226 4.95099 74.1836 5.182 74.6976 5.483C75.2106 5.785 75.6746 6.15399 76.0876 6.59099C76.5006 7.02799 76.8516 7.522 77.1396 8.07299C77.4276 8.625 77.6496 9.22999 77.8046 9.88799C77.9596 10.546 78.0376 11.25 78.0376 12C78.0376 12.75 77.9596 13.454 77.8046 14.112C77.6496 14.77 77.4276 15.375 77.1396 15.927C76.8516 16.479 76.5006 16.973 76.0876 17.409C75.6746 17.846 75.2106 18.215 74.6976 18.517C74.1846 18.819 73.6236 19.05 73.0146 19.209C72.4066 19.369 71.7626 19.449 71.0826 19.449C70.4026 19.449 69.7586 19.369 69.1496 19.209C68.5416 19.049 67.9806 18.818 67.4666 18.517C66.9536 18.215 66.4906 17.846 66.0786 17.409C65.6666 16.972 65.3166 16.478 65.0256 15.927C64.7356 15.375 64.5136 14.77 64.3606 14.112C64.2076 13.454 64.1306 12.75 64.1306 12C64.1306 11.25 64.2076 10.546 64.3606 9.88799ZM67.4236 13.413C67.4986 13.845 67.6096 14.236 67.7566 14.588C67.9036 14.94 68.0836 15.25 68.2966 15.518C68.5096 15.786 68.7566 16.011 69.0366 16.193C69.3166 16.375 69.6276 16.511 69.9696 16.603C70.3116 16.695 70.6816 16.741 71.0816 16.741C71.4816 16.741 71.8526 16.695 72.1936 16.603C72.5356 16.511 72.8456 16.375 73.1256 16.193C73.4056 16.011 73.6536 15.786 73.8686 15.518C74.0836 15.25 74.2646 14.94 74.4106 14.588C74.5576 14.236 74.6686 13.845 74.7436 13.413C74.8186 12.981 74.8556 12.51 74.8556 12.001C74.8556 11.492 74.8176 11.02 74.7436 10.589C74.6686 10.157 74.5576 9.766 74.4106 9.414C74.2636 9.062 74.0826 8.752 73.8686 8.484C73.6536 8.216 73.4066 7.991 73.1256 7.809C72.8456 7.627 72.5346 7.491 72.1936 7.399C71.8516 7.307 71.4816 7.261 71.0816 7.261C70.6816 7.261 70.3106 7.307 69.9696 7.399C69.6276 7.491 69.3166 7.627 69.0366 7.809C68.7566 7.991 68.5096 8.216 68.2966 8.484C68.0836 8.752 67.9036 9.062 67.7566 9.414C67.6096 9.766 67.4986 10.157 67.4236 10.589C67.3486 11.021 67.3116 11.492 67.3116 12.001C67.3116 12.51 67.3496 12.982 67.4236 13.413Z" fill="#005128"/>
</svg>
