<svg width="105" height="32" viewBox="0 0 105 32" fill="none" xmlns="http://www.w3.org/2000/svg">
<path d="M16.7105 0.00227967L11.253 2.91719L15.8447 16.9663L3.37179 7.89948L0 11.1525L1.06683 17.1696H15.7419L3.26899 26.2022L5.33639 30.4717L11.3695 31.301L15.9452 17.2861L15.9954 17.1673L16.0114 17.0828L16.0617 16.9298L20.8749 2.22045L16.7059 0L16.7105 0.00227967ZM16.1325 17.1696L16.0137 17.0851L15.9292 17.0348L15.8447 16.9663L3.37179 7.89948L0 11.1525L1.06683 17.1696H15.7419L3.26899 26.2022L5.33639 30.4717L11.3695 31.301L15.9452 17.2861L20.7584 31.9954L25.3844 31.3512L28.0617 25.8435L16.1325 17.1673V17.1696ZM28.064 8.23986L16.0663 16.9343L20.8795 2.22501L16.7105 0.00456631L11.253 2.91947L15.8447 16.9686L3.37179 7.90177L0 11.1548L1.06683 17.1719H31.6551L32.4843 12.5117L28.0617 8.24214L28.064 8.23986ZM32.4866 12.5094L28.064 8.23986L16.0663 16.9343L15.9315 17.0371L15.8812 17.0714L15.7464 17.1719L3.27356 26.2045L5.34095 30.474L11.3741 31.3033L15.9497 17.2884L20.763 31.9977L25.3889 31.3535L28.0663 25.8458L16.1371 17.1696H31.6596L32.4889 12.5094H32.4866ZM32.4866 12.5094L28.064 8.23986L16.0663 16.9343L20.8795 2.22501L16.7105 0.00456631L11.253 2.91947L15.8447 16.9686L15.8789 17.0714L15.9132 17.1719L15.9475 17.2907L20.7607 32L25.3867 31.3558L28.064 25.8481L16.1348 17.1719H31.6573L32.4866 12.5117V12.5094Z" fill="#E4F7EB"/>
<path d="M45.2355 6.468V22.2813L44.9155 21.948H53.9022V25.5347H41.0222V6.468H45.2355Z" fill="#E4F7EB"/>
<path d="M59.5275 25.5347H55.3142V6.468H59.5275V25.5347Z" fill="#E4F7EB"/>
<path d="M61.3742 25.5347V6.46133H70.8009C71.8769 6.46133 72.8382 6.59733 73.6875 6.868C74.5369 7.13867 75.2582 7.52533 75.8542 8.028C76.4502 8.53067 76.9049 9.136 77.2209 9.844C77.5369 10.5533 77.6942 11.3467 77.6942 12.228C77.6942 13.0187 77.5635 13.7347 77.3009 14.3747C77.0382 15.0147 76.6649 15.5627 76.1809 16.0187C75.6969 16.4747 75.1129 16.824 74.4315 17.0693C73.7489 17.3133 72.9875 17.436 72.1489 17.436V17.4227C72.5582 17.4227 72.9422 17.4867 73.3022 17.616C73.6622 17.7453 73.9995 17.9347 74.3129 18.1867C74.6262 18.4373 74.9169 18.7507 75.1835 19.1267C75.4502 19.5027 75.6942 19.9373 75.9169 20.4307L78.2102 25.5373H73.5369L71.2235 20.444C71.0542 20.0667 70.8835 19.7547 70.7102 19.508C70.5369 19.2613 70.3409 19.064 70.1235 18.9173C69.9062 18.7707 69.6542 18.668 69.3702 18.6107C69.0862 18.5533 68.7475 18.524 68.3569 18.524H65.3435L65.5902 18.2173V25.5373H61.3769L61.3742 25.5347ZM65.5875 9.65467V15.5747L65.2342 15.1213H70.3209C70.8182 15.1213 71.2635 15.0627 71.6542 14.944C72.0449 14.8267 72.3769 14.6547 72.6475 14.4307C72.9182 14.2067 73.1249 13.9307 73.2635 13.604C73.4035 13.2773 73.4742 12.9053 73.4742 12.4867C73.4742 12.068 73.4049 11.716 73.2675 11.4C73.1302 11.084 72.9262 10.8187 72.6582 10.604C72.3889 10.388 72.0582 10.224 71.6649 10.1107C71.2715 9.99733 70.8209 9.94 70.3155 9.94H65.3622L65.5889 9.65333L65.5875 9.65467Z" fill="#E4F7EB"/>
<path d="M83.8609 25.5347H79.6476V6.468H83.8609V25.5347Z" fill="#E4F7EB"/>
<path d="M85.8142 13.184C86.0182 12.3067 86.3142 11.5 86.7009 10.764C87.0876 10.028 87.5556 9.36933 88.1049 8.788C88.6542 8.20533 89.2702 7.71333 89.9556 7.31067C90.6396 6.908 91.3876 6.6 92.1996 6.388C93.0102 6.17467 93.8689 6.068 94.7769 6.068C95.6849 6.068 96.5422 6.17467 97.3529 6.388C98.1636 6.60133 98.9116 6.90933 99.5969 7.31067C100.281 7.71333 100.9 8.20533 101.45 8.788C102.001 9.37067 102.469 10.0293 102.853 10.764C103.237 11.5 103.533 12.3067 103.74 13.184C103.946 14.0613 104.05 15 104.05 16C104.05 17 103.946 17.9387 103.74 18.816C103.533 19.6933 103.237 20.5 102.853 21.236C102.469 21.972 102.001 22.6307 101.45 23.212C100.9 23.7947 100.281 24.2867 99.5969 24.6893C98.9129 25.092 98.1649 25.4 97.3529 25.612C96.5422 25.8253 95.6836 25.932 94.7769 25.932C93.8702 25.932 93.0116 25.8253 92.1996 25.612C91.3889 25.3987 90.6409 25.0907 89.9556 24.6893C89.2716 24.2867 88.6542 23.7947 88.1049 23.212C87.5556 22.6293 87.0889 21.9707 86.7009 21.236C86.3142 20.5 86.0182 19.6933 85.8142 18.816C85.6102 17.9387 85.5076 17 85.5076 16C85.5076 15 85.6102 14.0613 85.8142 13.184ZM89.8982 17.884C89.9982 18.46 90.1462 18.9813 90.3422 19.4507C90.5382 19.92 90.7782 20.3333 91.0622 20.6907C91.3462 21.048 91.6756 21.348 92.0489 21.5907C92.4222 21.8333 92.8369 22.0147 93.2929 22.1373C93.7489 22.26 94.2422 22.3213 94.7756 22.3213C95.3089 22.3213 95.8036 22.26 96.2582 22.1373C96.7142 22.0147 97.1276 21.8333 97.5009 21.5907C97.8742 21.348 98.2049 21.048 98.4916 20.6907C98.7782 20.3333 99.0196 19.92 99.2142 19.4507C99.4102 18.9813 99.5582 18.46 99.6582 17.884C99.7582 17.308 99.8076 16.68 99.8076 16.0013C99.8076 15.3227 99.7569 14.6933 99.6582 14.1187C99.5582 13.5427 99.4102 13.0213 99.2142 12.552C99.0182 12.0827 98.7769 11.6693 98.4916 11.312C98.2049 10.9547 97.8756 10.6547 97.5009 10.412C97.1276 10.1693 96.7129 9.988 96.2582 9.86533C95.8022 9.74267 95.3089 9.68133 94.7756 9.68133C94.2422 9.68133 93.7476 9.74267 93.2929 9.86533C92.8369 9.988 92.4222 10.1693 92.0489 10.412C91.6756 10.6547 91.3462 10.9547 91.0622 11.312C90.7782 11.6693 90.5382 12.0827 90.3422 12.552C90.1462 13.0213 89.9982 13.5427 89.8982 14.1187C89.7982 14.6947 89.7489 15.3227 89.7489 16.0013C89.7489 16.68 89.7996 17.3093 89.8982 17.884Z" fill="#E4F7EB"/>
</svg>
