<svg width="286" height="280" viewBox="0 0 286 280" fill="none" xmlns="http://www.w3.org/2000/svg">
  <path d="M147.185 0.0199471L99.4324 25.5254L139.61 148.455L30.4718 69.1205L0.968628 97.5842L10.3034 150.234H138.71L29.5723 229.269L47.662 266.628L100.452 273.883L140.489 151.254L140.929 150.214L141.069 149.475L141.508 148.135L183.624 19.4289L147.145 0L147.185 0.0199471ZM142.128 150.234L141.089 149.495L140.349 149.055L139.61 148.455L30.4718 69.1205L0.968628 97.5842L10.3034 150.234H138.71L29.5723 229.269L47.662 266.628L100.452 273.883L140.489 151.254L182.605 279.96L223.082 274.323L246.508 226.131L142.128 150.214V150.234ZM246.528 72.0988L141.548 148.175L183.664 19.4689L147.185 0.0399552L99.4324 25.5454L139.61 148.475L30.4718 69.1405L0.968628 97.6042L10.3034 150.254H277.95L285.206 109.477L246.508 72.1188L246.528 72.0988ZM285.226 109.457L246.528 72.0988L141.548 148.175L140.369 149.075L139.929 149.375L138.75 150.254L29.6123 229.289L47.7019 266.648L100.492 273.904L140.529 151.274L182.645 279.98L223.122 274.343L246.548 226.151L142.168 150.234H277.99L285.246 109.457H285.226ZM285.226 109.457L246.528 72.0988L141.548 148.175L183.664 19.4689L147.185 0.0399552L99.4324 25.5454L139.61 148.475L139.909 149.375L140.209 150.254L140.509 151.294L182.625 280L223.102 274.363L246.528 226.171L142.148 150.254H277.97L285.226 109.477V109.457Z" fill="#E4F7EB"/>
</svg>
