<svg width="553" height="174" viewBox="0 0 553 174" fill="none" xmlns="http://www.w3.org/2000/svg">
  <path d="M37.7796 3.59499V141.962L34.9796 139.045H113.613V170.428H0.912956V3.59499H37.7796Z" fill="#E4F7EB"/>
  <path d="M162.835 170.428H125.968V3.59499H162.835V170.428Z" fill="#E4F7EB"/>
  <path d="M178.993 170.428V3.53667H261.476C270.891 3.53667 279.303 4.72666 286.735 7.09499C294.166 9.46333 300.478 12.8467 305.693 17.245C310.908 21.6433 314.886 26.94 317.651 33.135C320.416 39.3417 321.793 46.2833 321.793 53.995C321.793 60.9133 320.65 67.1784 318.351 72.7784C316.053 78.3784 312.786 83.1733 308.551 87.1633C304.316 91.1533 299.206 94.21 293.245 96.3567C287.271 98.4917 280.61 99.565 273.271 99.565V99.4483C276.853 99.4483 280.213 100.008 283.363 101.14C286.513 102.272 289.465 103.928 292.206 106.133C294.948 108.327 297.491 111.068 299.825 114.358C302.158 117.648 304.293 121.452 306.241 125.768L326.308 170.452H285.416L265.175 125.885C263.693 122.583 262.2 119.853 260.683 117.695C259.166 115.537 257.451 113.81 255.55 112.527C253.648 111.243 251.443 110.345 248.958 109.843C246.473 109.342 243.51 109.085 240.091 109.085H213.725L215.883 106.402V170.452H179.016L178.993 170.428ZM215.86 31.4783V83.2784L212.768 79.3117H257.276C261.628 79.3117 265.525 78.7983 268.943 77.76C272.361 76.7333 275.266 75.2283 277.635 73.2683C280.003 71.3083 281.811 68.8933 283.025 66.035C284.25 63.1767 284.868 59.9217 284.868 56.2583C284.868 52.595 284.261 49.515 283.06 46.75C281.858 43.985 280.073 41.6633 277.728 39.785C275.371 37.895 272.478 36.46 269.036 35.4683C265.595 34.4767 261.651 33.975 257.23 33.975H213.888L215.871 31.4667L215.86 31.4783Z" fill="#E4F7EB"/>
  <path d="M375.751 170.428H338.885V3.59499H375.751V170.428Z" fill="#E4F7EB"/>
  <path d="M392.843 62.36C394.628 54.6833 397.218 47.625 400.601 41.185C403.985 34.745 408.08 28.9817 412.886 23.895C417.693 18.7967 423.083 14.4917 429.08 10.9683C435.065 7.445 441.61 4.74999 448.715 2.89499C455.808 1.02832 463.321 0.0949936 471.266 0.0949936C479.211 0.0949936 486.713 1.02832 493.806 2.89499C500.9 4.76165 507.445 7.45667 513.441 10.9683C519.426 14.4917 524.84 18.7967 529.658 23.895C534.476 28.9933 538.571 34.7567 541.931 41.185C545.291 47.625 547.881 54.6833 549.69 62.36C551.498 70.0367 552.408 78.25 552.408 87C552.408 95.75 551.498 103.963 549.69 111.64C547.881 119.317 545.291 126.375 541.931 132.815C538.571 139.255 534.476 145.018 529.658 150.105C524.84 155.203 519.426 159.508 513.441 163.032C507.456 166.555 500.911 169.25 493.806 171.105C486.713 172.972 479.2 173.905 471.266 173.905C463.333 173.905 455.82 172.972 448.715 171.105C441.621 169.238 435.076 166.543 429.08 163.032C423.095 159.508 417.693 155.203 412.886 150.105C408.08 145.007 403.996 139.243 400.601 132.815C397.218 126.375 394.628 119.317 392.843 111.64C391.058 103.963 390.16 95.75 390.16 87C390.16 78.25 391.058 70.0367 392.843 62.36ZM428.578 103.485C429.453 108.525 430.748 113.087 432.463 117.193C434.178 121.3 436.278 124.917 438.763 128.043C441.248 131.17 444.13 133.795 447.396 135.918C450.663 138.042 454.291 139.628 458.281 140.702C462.271 141.775 466.588 142.312 471.255 142.312C475.921 142.312 480.25 141.775 484.228 140.702C488.218 139.628 491.835 138.042 495.101 135.918C498.368 133.795 501.261 131.17 503.77 128.043C506.278 124.917 508.39 121.3 510.093 117.193C511.808 113.087 513.103 108.525 513.978 103.485C514.853 98.445 515.285 92.95 515.285 87.0117C515.285 81.0733 514.841 75.5667 513.978 70.5383C513.103 65.4983 511.808 60.9367 510.093 56.83C508.378 52.7233 506.266 49.1067 503.77 45.98C501.261 42.8533 498.38 40.2283 495.101 38.105C491.835 35.9817 488.206 34.395 484.228 33.3217C480.238 32.2483 475.921 31.7117 471.255 31.7117C466.588 31.7117 462.26 32.2483 458.281 33.3217C454.291 34.395 450.663 35.9817 447.396 38.105C444.13 40.2283 441.248 42.8533 438.763 45.98C436.278 49.1067 434.178 52.7233 432.463 56.83C430.748 60.9367 429.453 65.4983 428.578 70.5383C427.703 75.5783 427.271 81.0733 427.271 87.0117C427.271 92.95 427.715 98.4566 428.578 103.485Z" fill="#E4F7EB"/>
</svg>
