<svg width="26" height="26" viewBox="0 0 26 26" fill="none" xmlns="http://www.w3.org/2000/svg">
<path d="M9.92934 2.00002H11.6667V4.66669H10.7373L6.73734 7.33335H3.66668C3.29868 7.33335 3.00001 7.63202 3.00001 8.00002V22.6667C3.00001 23.0347 3.29868 23.3334 3.66668 23.3334H22.3333C22.7013 23.3334 23 23.0347 23 22.6667V11.3334H25.6667V22.6667C25.6667 24.508 24.1747 26 22.3333 26H3.66668C1.82534 26 0.333344 24.508 0.333344 22.6667V8.00002C0.333344 6.15869 1.82534 4.66669 3.66668 4.66669H5.92934L9.92934 2.00002ZM13 12C11.5267 12 10.3333 13.1934 10.3333 14.6667C10.3333 16.14 11.5267 17.3334 13 17.3334C14.4733 17.3334 15.6667 16.14 15.6667 14.6667C15.6667 13.1934 14.4733 12 13 12ZM7.66668 14.6667C7.66668 11.7214 10.0547 9.33335 13 9.33335C15.9453 9.33335 18.3333 11.7214 18.3333 14.6667C18.3333 17.612 15.9453 20 13 20C10.0547 20 7.66668 17.612 7.66668 14.6667ZM19.6667 0.666687C19.6667 2.87602 17.876 4.66669 15.6667 4.66669V6.00002C17.876 6.00002 19.6667 7.79069 19.6667 10H21C21 7.79069 22.7907 6.00002 25 6.00002V4.66669C22.7907 4.66669 21 2.87602 21 0.666687H19.6667Z" fill="#121314"/>
</svg>
